<svg width="649" height="124" viewBox="0 0 649 124" fill="none" xmlns="http://www.w3.org/2000/svg">
<path d="M519.862 121.878H542.305V42.6017H519.862V121.878ZM530.9 29.2655C538.994 29.2655 545.616 22.9679 545.616 14.818C545.616 6.66809 538.994 0 530.9 0C522.805 0 516.551 6.66809 516.551 14.818C516.551 22.9679 522.805 29.2655 530.9 29.2655ZM46.3571 4.4454H0V121.508H23.5465V77.0535H44.5176C66.2245 77.0535 84.2523 64.0878 84.2523 40.7495C84.2523 17.4111 68.432 4.4454 46.3571 4.4454ZM45.2534 55.9379H23.5465V24.8201H46.3571C55.555 24.8201 62.9133 30.7473 62.9133 40.379C62.9133 50.0107 55.1871 55.9379 45.2534 55.9379ZM576.889 77.0535C576.889 92.242 587.926 102.985 601.907 102.985C615.888 102.985 626.925 92.242 626.925 77.0535C626.925 61.8651 616.256 50.7516 601.907 50.7516C587.558 50.7516 576.889 61.8651 576.889 77.0535ZM555.182 77.0535C555.182 50.0107 575.417 30.0064 601.907 30.0064C628.397 30.0064 649 50.0107 649 77.0535C649 104.096 628.765 123.73 601.907 123.73C575.049 123.73 555.182 104.096 555.182 77.0535ZM425.676 56.3084V121.878H447.383V59.272C447.383 54.0857 450.327 51.4925 455.109 51.4925H473.505C478.288 51.4925 481.231 54.0857 481.231 59.272V121.878H502.938V56.3084C502.938 42.6017 491.533 31.1178 477.552 31.1178H451.062C437.082 31.1178 425.676 42.6017 425.676 56.3084ZM344.735 77.0535C344.735 92.242 355.405 102.985 369.753 102.985C384.102 102.985 394.772 92.242 394.772 77.0535C394.772 61.8651 383.734 50.7516 369.753 50.7516C355.773 50.7516 344.735 61.8651 344.735 77.0535ZM323.028 77.0535C323.028 50.0107 342.896 30.0064 369.753 30.0064C396.611 30.0064 416.478 50.0107 416.478 77.0535C416.478 104.096 396.611 123.73 369.753 123.73C342.896 123.73 323.028 104.096 323.028 77.0535ZM238.776 94.0942H261.219C261.955 102.985 268.577 106.319 278.143 106.319C285.869 106.319 293.227 104.096 293.227 96.3169C293.227 88.5375 285.869 87.4261 279.614 86.3148L270.785 84.833C253.861 81.8694 240.984 75.2013 240.984 58.5311C240.984 40.379 258.276 30.0064 277.039 30.0064C295.803 30.0064 313.095 39.6381 313.83 58.5311H292.124C291.388 50.3812 285.501 47.4176 277.039 47.4176C268.577 47.4176 263.058 49.6403 263.058 56.6788C263.058 62.9765 268.577 65.1992 275.2 66.3105L284.765 67.7923C301.321 70.3854 314.934 76.3127 314.934 93.7238C314.934 113.358 298.01 123.73 277.775 123.73C258.643 123.73 240.616 113.358 238.776 94.0942ZM185.061 56.3084V121.878H206.768V59.272C206.768 54.0857 209.711 51.4925 214.494 51.4925H234.729V31.1178H210.447C196.466 31.1178 185.061 42.6017 185.061 56.3084ZM109.638 67.4219H153.052C151.213 57.0493 142.383 49.6403 131.345 49.6403C120.308 49.6403 111.478 57.0493 109.638 67.4219ZM85.7239 77.0535C85.7239 50.7516 104.855 30.0064 130.609 30.0064C159.675 30.0064 174.759 52.2334 174.759 75.2013C174.759 78.1649 174.391 81.1285 174.023 84.0921H108.903C109.638 95.9465 119.204 102.985 131.345 102.985C139.071 102.985 146.062 99.2805 151.213 92.6124L167.769 104.467C158.203 117.433 144.958 123.73 130.609 123.73C105.223 123.73 85.7239 103.355 85.7239 77.0535Z" fill="black"/>
</svg>
